<svg id="Calque_1" data-name="Calque 1" xmlns="http://www.w3.org/2000/svg" xmlns:xlink="http://www.w3.org/1999/xlink" viewBox="0 0 951.95 435.71"><defs><style>.cls-1,.cls-2{fill:none;}.cls-2{clip-path:url(#clip-path);clip-rule:evenodd;}.cls-3{clip-path:url(#clip-path-6);}.cls-4{fill:#4bbaeb;}.cls-5{clip-path:url(#clip-path-7);}.cls-6{fill:#4bb16a;}.cls-7{clip-path:url(#clip-path-8);}.cls-8{fill:#f07e19;}.cls-9{clip-path:url(#clip-path-9);}.cls-10{fill:#fff;}.cls-11{clip-path:url(#clip-path-10);}.cls-12{clip-path:url(#clip-path-11);}</style><clipPath id="clip-path"><rect class="cls-1" x="-137.47" y="194.16" width="1448.97" height="1448.97"/></clipPath><clipPath id="clip-path-6" transform="translate(-111.75 -339.05)"><path class="cls-2" d="M869,700.66c91.54,0,165.74-74.46,165.74-166.32S960.52,368,869,368,703.24,442.49,703.24,534.34,777.45,700.66,869,700.66Z"/></clipPath><clipPath id="clip-path-7" transform="translate(-111.75 -339.05)"><path class="cls-2" d="M587.73,700.66c91.53,0,165.74-74.46,165.74-166.32S679.26,368,587.73,368,422,442.49,422,534.34s74.2,166.32,165.74,166.32Z"/></clipPath><clipPath id="clip-path-8" transform="translate(-111.75 -339.05)"><path class="cls-2" d="M306.47,700.66c91.54,0,165.74-74.46,165.74-166.32S398,368,306.47,368,140.73,442.49,140.73,534.34s74.21,166.32,165.74,166.32Z"/></clipPath><clipPath id="clip-path-9" transform="translate(-111.75 -339.05)"><path class="cls-2" d="M447.1,622.4a166.95,166.95,0,0,1,0-176.11,166.95,166.95,0,0,1,0,176.11Z"/></clipPath><clipPath id="clip-path-10" transform="translate(-111.75 -339.05)"><path class="cls-2" d="M728.35,446.29a166.89,166.89,0,0,1,0,176.11,166.95,166.95,0,0,1,0-176.11Z"/></clipPath><clipPath id="clip-path-11" transform="translate(-111.75 -339.05)"><path class="cls-1" d="M633.65,456.05a77.63,77.63,0,0,0-26.38,10.72,68.11,68.11,0,0,0-19.16,18.47,65.89,65.89,0,0,0-10.22,24.43,70.25,70.25,0,0,0,.47,28.61,80,80,0,0,0,2.77,9.91,22.68,22.68,0,0,0-2.94-2.94,43.12,43.12,0,0,0-16.79-8.67,88.31,88.31,0,0,0-20.22-2.87q-10.77-.3-20-.52a79,79,0,0,1-16-1.78c-4.77-1.13-7.61-3.67-8.44-7.55a12.48,12.48,0,0,1,3.33-11.6c3-3.27,7.82-5.63,14.25-7a69.71,69.71,0,0,1,22.22-1,56.1,56.1,0,0,1,20.71,6.51l10.85-22.47c-16-8.74-34.83-10.9-56-6.41a70.93,70.93,0,0,0-20.89,7.7A50,50,0,0,0,477,501.52a39.44,39.44,0,0,0-7.41,14.59,34.37,34.37,0,0,0-.29,15.86c1.72,8.06,5,14.15,9.77,18.1a42.68,42.68,0,0,0,16.74,8.47,83.8,83.8,0,0,0,20.25,2.55q10.85.09,20.12.4a73.79,73.79,0,0,1,16,2.09c4.78,1.26,7.67,4.07,8.57,8.33s-.41,8.35-3.86,12.42-9.42,6.93-17.92,8.74a60.65,60.65,0,0,1-27.12,0,68.7,68.7,0,0,1-20.3-8.2l-10.47,23.35a75.88,75.88,0,0,0,26.3,9.46c10.19,1.77,22,1.25,35.2-1.55a81.15,81.15,0,0,0,23.15-8.29,51.73,51.73,0,0,0,15-12.32,35.76,35.76,0,0,0,7.26-15.13,41.46,41.46,0,0,0-.18-17.17c-.11-.55-.24-1.09-.37-1.62l2,3a65.69,65.69,0,0,0,19.27,18.15,68,68,0,0,0,25,9.09,77.69,77.69,0,0,0,28.46-.94A64.4,64.4,0,0,0,681,584.11a60.83,60.83,0,0,0,13.58-10.43A58,58,0,0,0,703.88,561a85,85,0,0,0,5.51-12.5l-24.47-6a38.61,38.61,0,0,1-9.59,15.8,34.44,34.44,0,0,1-17.86,9.81,44.39,44.39,0,0,1-17.94.29A42,42,0,0,1,624,562a42.57,42.57,0,0,1-11.89-12.29,50.62,50.62,0,0,1-6.93-17.11,49.91,49.91,0,0,1-.61-18.36,44,44,0,0,1,5.86-16.05A41.64,41.64,0,0,1,622,485.9a44.43,44.43,0,0,1,16.51-7,34.63,34.63,0,0,1,20.31,1.69A38.78,38.78,0,0,1,674,491.1l19.88-15.65a85.7,85.7,0,0,0-10.13-9.17,57.26,57.26,0,0,0-30.29-11.69c-1.59-.14-3.22-.22-4.9-.22a71.7,71.7,0,0,0-14.9,1.68"/></clipPath></defs><g class="cls-3"><rect class="cls-4" x="562.51" width="389.44" height="390.58"/></g><g class="cls-5"><rect class="cls-6" x="281.25" width="389.44" height="390.58"/></g><g class="cls-7"><rect class="cls-8" width="389.44" height="390.58"/></g><g class="cls-9"><rect class="cls-10" x="281.25" y="78.25" width="108.18" height="234.07"/></g><g class="cls-11"><rect class="cls-10" x="562.51" y="78.25" width="108.18" height="234.07"/></g><g class="cls-12"><rect class="cls-10" x="352.08" y="110.6" width="250.28" height="173.79"/></g><path class="cls-6" d="M686,666.1l1.14-.45a36.59,36.59,0,0,1-4.43-9.76c0-.13-.06-.27-.1-.41a135.37,135.37,0,0,0-19-1.13c-20.7-.07-40.7,3.08-60.81,7.8-6.57,1.54-13.14,3.14-19.61,5.08-4,1.19-7.81,2.59-11.7,4l-.69.24-.52.25c-1.82.88-3.65,1.72-5.44,2.67q-2,1.07-3.86,2.23c-.6.36-3.47,2.48-3.49,2.39-.95.84-1.89,1.69-2.81,2.58a22.46,22.46,0,0,0-1.56,1.84c-.41.67-.8,1.35-1.21,2,.87,1.12,2.2,2.84,2.2,2.86l0,0c0,.08,1.88,4.43,1.9,4.5s.36,2.65.55,4.08l.48-.13,16.57,78,51.54-73.36s29.31,17.55,78,45.82Z" transform="translate(-111.75 -339.05)"/></svg>